<?xml version="1.0" standalone="no"?>
<!DOCTYPE svg PUBLIC "-//W3C//DTD SVG 20010904//EN"
 "http://www.w3.org/TR/2001/REC-SVG-20010904/DTD/svg10.dtd">
<svg version="1.0" xmlns="http://www.w3.org/2000/svg"
 width="640.000000pt" height="640.000000pt" viewBox="0 0 640.000000 640.000000"
 preserveAspectRatio="xMidYMid meet">
<metadata>
Created by potrace 1.11, written by Peter Selinger 2001-2013
</metadata>
<g transform="translate(0.000000,640.000000) scale(0.100000,-0.100000)"
fill="#000000" stroke="none">
<path d="M2294 5661 c-58 -7 -128 -55 -225 -152 -45 -47 -58 -67 -69 -113 -12
-51 -10 -173 5 -271 2 -16 9 -64 15 -105 9 -62 15 -79 37 -97 22 -17 27 -30
25 -58 -3 -37 8 -45 28 -20 19 23 28 18 45 -22 20 -48 23 -137 5 -158 -8 -9
-84 -67 -169 -128 -165 -118 -254 -199 -339 -311 -71 -92 -96 -151 -108 -255
-3 -31 -7 -57 -8 -57 0 -1 -33 -4 -71 -8 -39 -4 -81 -8 -95 -11 -14 -2 -41 -6
-60 -9 -19 -3 -44 -8 -55 -10 -11 -2 -42 -9 -70 -15 -27 -6 -83 -23 -122 -37
-96 -34 -118 -61 -127 -151 -3 -37 -9 -99 -13 -138 -3 -38 -7 -80 -7 -92 0
-28 -22 -36 -90 -35 -68 1 -113 9 -158 28 -20 9 -44 14 -53 10 -15 -6 -15 -9
2 -39 27 -45 83 -73 192 -94 l95 -19 4 -34 c4 -44 43 -126 77 -165 97 -111
260 -259 412 -375 51 -38 69 -57 59 -62 -18 -10 -117 -19 -253 -22 -62 -1
-115 -5 -118 -8 -13 -12 34 -49 80 -63 38 -11 84 -14 195 -10 80 2 164 7 187
10 36 4 44 1 62 -22 39 -48 80 -147 111 -263 18 -66 44 -134 60 -160 16 -25
36 -62 45 -82 22 -55 38 -300 23 -377 -18 -98 -20 -110 -33 -251 -4 -36 -8
-78 -11 -95 -4 -33 -4 -191 0 -245 2 -19 7 -75 11 -125 13 -132 10 -182 -13
-256 -11 -36 -23 -81 -26 -100 -3 -19 -8 -45 -10 -59 -3 -14 -7 -36 -10 -50
-2 -14 -15 -68 -29 -120 -20 -79 -24 -117 -23 -225 l1 -130 262 -3 262 -2 10
37 c11 44 18 110 27 248 3 55 11 111 18 125 6 15 33 36 66 52 62 30 246 93
302 103 34 7 39 5 57 -26 12 -19 26 -60 32 -91 11 -55 13 -58 64 -83 l52 -27
-9 -51 c-11 -67 -19 -252 -12 -272 5 -13 44 -15 285 -15 216 0 279 3 280 13 4
53 -7 131 -45 312 -38 180 -38 184 -11 209 13 12 60 32 105 45 l82 24 -5 56
c-4 31 -18 110 -32 176 -14 66 -33 152 -41 190 -16 73 -21 142 -25 316 -1 86
-7 120 -32 196 -17 51 -27 96 -23 100 4 4 46 -1 94 -10 128 -26 133 -27 187
-33 28 -4 52 -8 55 -9 16 -10 221 -20 390 -20 299 0 458 19 738 86 110 27 190
52 377 118 80 29 459 217 475 237 16 18 -15 50 -169 173 -57 45 -110 88 -116
94 -20 18 -412 307 -485 358 -36 24 -67 46 -70 49 -16 16 -475 322 -585 390
-114 69 -274 163 -365 214 -47 26 -96 53 -110 61 -14 8 -128 66 -255 130 -126
63 -242 125 -257 137 -19 17 -28 35 -31 69 -7 58 -33 157 -58 221 -18 46 -19
91 -4 148 3 11 19 135 18 140 0 3 -4 32 -7 65 -4 33 -12 78 -18 100 -5 22 -11
47 -13 55 -13 62 -60 132 -105 155 -16 8 -62 18 -102 21 -91 8 -112 16 -220
83 l-88 54 34 33 c26 25 36 46 46 96 6 34 14 72 16 83 13 60 15 167 5 217 -10
46 -9 62 3 92 8 19 12 50 10 68 -3 18 -7 53 -9 77 -2 25 -13 57 -25 73 -22 30
-20 52 2 30 19 -19 30 -14 23 11 -12 37 -67 88 -122 113 -79 35 -238 57 -339
45z"/>
</g>
</svg>
